<?xml version="1.0" standalone="no"?>
<!DOCTYPE svg PUBLIC "-//W3C//DTD SVG 20010904//EN"
 "http://www.w3.org/TR/2001/REC-SVG-20010904/DTD/svg10.dtd">
<svg version="1.0" xmlns="http://www.w3.org/2000/svg"
 width="680.000000pt" height="453.000000pt" viewBox="0 0 680.000000 453.000000"
 preserveAspectRatio="xMidYMid meet">
<metadata>
Created by potrace 1.16, written by Peter Selinger 2001-2019
</metadata>
<g transform="translate(0.000000,453.000000) scale(0.100000,-0.100000)"
fill="#000000" stroke="none">
<path d="M13 2648 c-4 -7 -9 -56 -11 -109 -4 -95 -4 -96 20 -102 13 -4 60 -2
104 2 107 13 643 -10 834 -34 14 -2 56 -4 93 -4 38 -1 66 -5 63 -9 -5 -9 -5
-9 64 -18 33 -4 41 -2 30 5 -11 8 3 11 53 11 38 0 67 -4 67 -10 0 -5 22 -10
50 -10 27 0 69 -6 92 -14 24 -7 52 -13 63 -13 11 0 33 -4 49 -8 23 -6 27 -5
21 5 -6 10 -4 12 9 7 10 -4 36 -7 59 -7 28 0 37 -3 28 -9 -7 -5 -23 -6 -35 -4
-15 3 -17 2 -8 -5 8 -5 54 -8 103 -6 54 2 87 -1 84 -7 -4 -5 11 -9 32 -9 51 0
82 -19 33 -21 l-35 -1 39 -9 c29 -7 42 -6 48 3 4 7 8 9 8 3 0 -6 21 -9 50 -7
46 4 68 -9 38 -21 -7 -3 37 -6 97 -7 61 -1 119 -6 130 -11 14 -6 3 -7 -35 -4
l-55 5 40 -14 c22 -8 32 -14 23 -15 -10 -1 -16 -9 -15 -21 1 -17 8 -20 43 -20
28 0 44 -5 48 -15 4 -11 21 -15 58 -15 54 0 169 -27 133 -30 -14 -2 -12 -4 10
-10 l30 -8 -30 -2 c-27 -3 -26 -3 10 -9 l40 -6 -62 -20 c-34 -11 -60 -22 -57
-24 5 -5 35 -9 77 -10 16 -1 26 -5 22 -11 -3 -5 3 -10 14 -10 12 0 21 4 21 9
0 4 23 9 52 10 28 0 60 3 70 7 16 5 20 -1 17 -22 0 -4 5 -11 13 -15 10 -7 9
-9 -4 -9 -10 0 -18 -7 -18 -15 0 -11 11 -15 40 -15 32 0 38 3 33 16 -5 13 0
15 28 11 19 -3 35 -6 37 -7 7 -7 28 -4 34 4 8 13 52 -9 93 -46 16 -15 44 -39
60 -53 l30 -26 -30 3 c-18 2 -29 8 -27 16 1 6 -2 12 -8 12 -5 0 -10 -7 -10
-15 0 -18 -11 -19 -45 -3 -31 14 -40 7 -26 -21 6 -12 16 -31 22 -42 12 -25 -1
-39 -37 -39 -12 0 -27 -7 -34 -15 -11 -13 -8 -15 16 -15 l29 -1 -30 -16 -30
-17 30 -7 c17 -4 26 -7 20 -8 -5 -1 3 -8 19 -16 27 -14 35 -14 94 6 43 14 60
24 51 30 -23 14 -1 23 26 11 41 -19 48 -14 25 15 -15 20 -18 29 -9 32 7 2 15
-1 17 -7 2 -6 9 -9 17 -6 19 7 30 -16 14 -28 -11 -8 -10 -9 3 -4 19 6 58 -28
58 -50 0 -14 23 -24 58 -24 24 0 25 -1 7 -13 -17 -13 -17 -16 9 -53 14 -21 26
-44 26 -50 0 -7 6 -14 14 -17 8 -3 25 -24 38 -46 13 -23 26 -41 31 -41 16 0
48 -42 43 -57 -4 -9 -1 -22 5 -29 11 -14 5 -34 -12 -34 -5 0 -9 7 -9 15 0 23
-63 104 -80 102 -9 -1 -15 6 -15 20 0 33 -15 40 -16 7 0 -16 -3 -22 -6 -14 -3
8 -15 25 -26 37 -17 20 -18 26 -7 53 15 36 9 46 -19 30 -12 -6 -21 -7 -21 -2
0 14 -36 52 -44 45 -3 -3 -6 2 -6 11 0 14 -6 17 -26 13 -18 -3 -33 2 -45 14
-21 21 -44 25 -54 9 -3 -5 -1 -10 4 -10 6 0 11 -7 11 -15 0 -8 5 -15 11 -15 5
0 8 -4 5 -8 -3 -5 13 -7 35 -5 26 2 46 -2 55 -12 9 -8 11 -15 5 -15 -6 0 -49
-23 -97 -52 -89 -53 -88 -51 -73 -108 3 -11 25 -17 84 -21 100 -8 118 -11 127
-24 5 -6 8 -5 8 3 0 20 20 14 30 -10 5 -13 9 -17 9 -10 1 18 21 15 21 -4 0
-10 6 -14 14 -11 10 4 13 1 10 -8 -3 -8 2 -22 11 -31 24 -24 2 -44 -23 -21
-10 9 -26 17 -35 17 -9 0 -17 4 -17 9 0 5 -11 6 -27 1 -16 -5 -41 -12 -58 -17
-16 -5 -28 -13 -25 -18 3 -6 7 -9 10 -8 3 1 13 5 23 8 12 5 17 2 17 -9 0 -9 7
-16 16 -16 10 0 14 -6 10 -15 -3 -8 -1 -15 5 -15 11 0 9 -20 -4 -78 -6 -22 7
-31 18 -12 12 19 21 10 19 -20 -1 -21 3 -30 13 -30 28 0 2 -44 -61 -103 -47
-45 -55 -56 -36 -51 14 3 29 10 35 15 5 5 18 9 28 9 16 0 17 -3 7 -15 -25 -30
31 -4 61 28 9 9 21 17 27 17 6 0 9 6 6 14 -6 15 12 16 35 2 10 -7 10 -10 1
-16 -9 -6 -7 -11 9 -19 19 -11 20 -14 7 -26 -8 -8 -23 -15 -33 -15 -25 0 -80
-35 -93 -59 -8 -16 -7 -24 9 -40 12 -12 23 -16 32 -10 23 14 31 10 24 -12 -5
-14 -3 -20 7 -18 7 1 21 -1 31 -6 9 -4 32 -4 50 -1 44 9 50 9 67 5 8 -2 14 3
15 11 0 8 11 17 24 18 l24 4 -24 -32 c-51 -68 -80 -93 -92 -81 -16 16 -27 14
-27 -8 0 -14 6 -18 27 -15 15 1 29 8 31 13 2 6 9 8 15 4 7 -3 9 -3 5 2 -4 4 4
22 19 39 73 88 81 95 103 89 17 -4 20 -11 16 -29 -4 -14 -2 -24 4 -24 5 0 10
-6 10 -14 0 -8 7 -16 15 -20 8 -3 15 -10 15 -17 0 -6 -7 -9 -15 -5 -8 3 -15 1
-15 -3 0 -5 -3 -18 -7 -28 -7 -17 -6 -17 11 0 9 9 24 17 32 17 8 0 14 9 14 19
0 14 5 18 20 14 14 -4 17 -10 11 -22 -5 -9 -6 -22 -4 -28 3 -7 0 -13 -6 -13
-6 0 -11 -9 -11 -20 0 -19 -6 -20 -101 -19 -55 0 -103 -2 -107 -5 -3 -3 38 -6
92 -6 120 0 140 -9 131 -56 -7 -42 8 -45 26 -5 18 41 49 49 48 13 -1 -17 -3
-21 -6 -9 -2 9 -8 17 -11 17 -8 0 -42 -74 -42 -90 0 -6 -7 -10 -16 -10 -8 0
-12 -4 -9 -10 3 -5 3 -10 -2 -10 -14 0 -35 17 -33 26 3 15 -17 16 -31 1 -8 -7
-22 -16 -31 -20 -10 -3 -18 -13 -18 -22 0 -24 -2 -29 -18 -41 -20 -15 -102
-18 -102 -4 0 7 8 9 21 5 14 -5 19 -3 15 3 -3 6 0 13 6 15 7 3 -3 3 -22 0 -19
-3 -38 -11 -41 -16 -4 -5 -17 -7 -30 -4 -13 3 -29 1 -36 -5 -9 -7 -17 -7 -28
2 -12 10 -15 10 -15 0 0 -12 -24 -10 -66 7 -13 5 -15 3 -9 -7 5 -8 4 -11 -2
-7 -6 4 -62 6 -124 6 -290 -2 -444 2 -454 14 -15 17 -59 41 -50 27 4 -6 1 -17
-5 -25 -10 -12 -9 -15 4 -15 9 0 16 5 16 11 0 5 5 7 10 4 21 -13 -3 -27 -36
-20 -20 3 -34 2 -34 -4 0 -5 -8 -12 -17 -15 -10 -3 3 -3 29 -1 35 3 47 1 45
-8 -1 -8 7 -10 23 -7 36 7 883 5 902 -3 11 -4 15 -13 11 -26 -3 -11 -11 -17
-18 -15 -7 3 -16 -4 -20 -15 -3 -12 -13 -21 -22 -21 -9 0 -13 -6 -10 -14 3 -8
-5 -31 -18 -50 -22 -33 -19 -56 5 -41 14 9 0 -48 -14 -57 -6 -4 -4 -9 7 -14 9
-3 17 -15 17 -26 0 -17 3 -18 15 -8 13 11 15 8 15 -14 l0 -26 222 2 c187 3
222 5 225 18 3 11 2 12 -4 3 -7 -10 -13 -7 -27 8 -9 12 -16 22 -14 22 2 1 13
8 26 15 13 7 27 10 32 7 6 -4 10 -1 10 4 0 14 -47 14 -55 1 -8 -13 -25 -13
-25 -1 0 5 8 17 17 27 16 16 16 16 -7 9 -90 -29 -120 -33 -120 -18 0 10 -6 14
-19 10 -24 -6 -46 7 -37 22 5 8 13 8 26 1 16 -8 18 -8 14 5 -4 8 -14 15 -23
16 -10 0 -11 2 -4 6 7 2 13 14 13 25 0 15 5 18 20 13 14 -5 20 -2 20 9 0 16
12 21 23 9 4 -3 -4 -16 -18 -29 l-24 -22 40 -16 c46 -18 59 -14 59 17 0 13 -3
17 -8 11 -9 -15 -49 -22 -48 -9 1 6 7 9 14 9 7 -1 16 11 19 27 3 17 15 37 27
45 20 16 20 16 1 11 -11 -2 -29 -8 -39 -13 -16 -6 -18 -4 -13 9 8 20 -11 33
-26 18 -6 -6 -18 -11 -27 -11 -13 0 -15 7 -12 30 4 28 5 29 18 13 14 -17 14
-16 12 7 -2 15 -9 24 -17 22 -12 -3 -12 0 -1 12 7 9 9 16 5 16 -4 0 -1 7 6 16
11 14 11 18 -3 28 -24 17 -20 156 5 181 20 20 36 13 18 -9 -8 -9 -8 -21 -1
-40 10 -28 25 -34 33 -14 4 10 6 10 6 0 1 -8 10 -25 20 -39 11 -13 17 -31 14
-39 -4 -10 0 -12 11 -8 10 4 16 1 16 -8 0 -8 9 -24 21 -37 14 -15 19 -31 16
-47 -6 -35 10 -40 39 -13 22 21 24 21 18 4 -7 -17 -5 -18 7 -8 13 11 15 8 11
-18 -4 -29 -3 -30 16 -20 17 9 19 8 15 -9 -3 -11 -9 -18 -13 -15 -4 2 -5 -6
-3 -19 3 -15 -2 -31 -15 -44 -23 -23 -46 -86 -34 -90 5 -1 7 -15 5 -30 -3 -17
-1 -22 4 -15 13 18 31 2 35 -32 l3 -30 898 -3 899 -2 -3 37 c-1 21 2 46 6 57
5 11 3 26 -3 37 -15 23 -15 32 -2 24 6 -4 10 7 10 24 0 17 -4 31 -10 31 -5 0
-10 5 -10 11 0 5 4 8 9 4 5 -3 13 5 17 17 4 15 1 25 -11 34 -9 7 -15 19 -12
26 4 10 6 10 6 1 1 -7 6 -13 11 -13 14 0 12 58 -2 62 -8 3 -4 12 10 26 l22 22
0 -28 c0 -20 9 -35 30 -50 35 -26 41 -48 8 -30 -13 7 -26 17 -30 22 -3 5 -5
-4 -5 -20 1 -18 13 -39 32 -56 17 -15 25 -28 19 -28 -6 0 -19 9 -29 20 -45 50
-48 0 -2 -55 l32 -40 -31 23 c-32 22 -32 22 -37 1 -4 -13 5 -32 26 -57 l32
-36 -31 22 -32 22 -4 -45 c-2 -24 -2 -49 0 -55 5 -13 42 -13 42 0 0 6 8 5 20
-2 17 -11 22 -10 29 1 6 9 11 10 15 2 11 -17 46 -14 40 4 -4 8 -2 15 4 15 5 0
15 -7 22 -15 9 -11 32 -15 78 -15 62 0 64 1 49 18 -28 31 -19 35 14 8 23 -20
42 -26 76 -26 39 0 44 3 39 17 -6 17 -5 17 8 1 15 -20 37 -23 53 -7 8 8 13 8
17 0 5 -7 72 -11 202 -11 l195 0 -2 105 c-1 105 -7 119 -35 90 -23 -22 -64 0
-64 35 0 21 -10 34 -40 54 l-40 26 -1 -27 c-1 -26 -2 -25 -12 9 -7 26 -20 42
-44 55 -25 13 -33 24 -33 45 0 25 -2 26 -37 21 -58 -9 -75 -22 -30 -23 23 0
36 -4 32 -10 -3 -6 -25 -10 -49 -10 -54 0 -158 -19 -171 -31 -19 -18 -57 -8
-105 28 -28 21 -50 43 -50 50 0 7 -11 20 -25 29 -14 9 -25 26 -25 38 -1 20 -2
20 -14 4 -16 -22 -30 -24 -23 -3 8 19 -13 31 -24 14 -5 -9 -2 -23 7 -37 13
-20 9 -19 -29 10 -35 26 -42 36 -34 49 12 19 3 49 -14 49 -7 0 -9 -10 -7 -25
6 -27 1 -30 -22 -14 -11 8 -12 12 -2 16 17 7 15 42 -3 49 -8 4 -15 12 -15 20
0 8 -7 14 -15 14 -8 0 -29 13 -47 28 -25 22 -44 29 -81 31 -30 1 -46 -3 -42
-9 3 -5 25 -10 49 -10 41 0 81 -25 87 -55 1 -5 12 -8 23 -7 l21 4 -21 -19
c-11 -10 -23 -24 -25 -32 -4 -11 -7 -11 -19 1 -8 8 -23 17 -32 21 -14 5 -18 1
-18 -16 0 -35 -16 -53 -33 -39 -12 10 -16 9 -20 -8 -4 -15 4 -27 29 -46 19
-15 34 -31 34 -36 0 -10 -5 -7 -87 68 -35 32 -63 64 -63 71 0 22 -27 46 -34
30 -3 -6 -4 0 -2 16 3 27 -9 38 -17 15 -2 -7 -6 2 -9 20 -4 31 -4 32 16 18 12
-8 20 -21 20 -30 -1 -12 7 -16 32 -16 20 0 38 -7 46 -17 8 -10 28 -31 47 -48
l33 -30 -3 30 c-2 17 1 37 6 45 8 13 7 13 -8 1 -15 -12 -20 -11 -40 8 -13 11
-28 21 -34 21 -6 0 -13 9 -16 21 -3 12 -10 18 -15 15 -11 -6 -62 30 -62 45 0
18 -35 49 -56 49 -14 0 -34 15 -54 40 -17 22 -39 40 -48 40 -19 1 -52 27 -68
55 -11 19 -25 29 -57 39 -10 3 -25 19 -35 36 -20 36 -62 42 -62 10 0 -11 4
-20 9 -20 5 0 11 -6 14 -14 4 -10 -1 -14 -14 -13 -22 2 -24 18 -15 185 1 18 7
22 34 22 27 0 32 4 32 23 0 20 4 22 51 20 54 -3 82 -13 35 -13 -33 0 -27 -12
25 -50 23 -16 34 -30 27 -32 -20 -7 32 -31 67 -31 16 0 22 -2 12 -4 -10 -3
-16 -10 -14 -16 2 -8 29 -12 71 -13 86 -2 94 -10 16 -19 -56 -7 -64 -5 -103
21 -65 45 -71 48 -62 35 17 -28 90 -71 119 -71 17 0 45 -9 61 -20 17 -11 44
-20 60 -20 22 0 26 -3 15 -10 -17 -10 -18 -9 39 -46 82 -54 80 -54 196 -48 61
2 137 9 171 15 33 6 76 8 95 4 19 -4 48 -8 64 -9 23 -2 31 -8 33 -27 2 -13 9
-30 15 -38 10 -12 6 -13 -21 -9 -47 7 -40 -13 21 -55 28 -20 46 -37 39 -37 -7
0 -10 -5 -6 -11 4 -7 -1 -7 -16 1 -13 7 -19 17 -16 26 3 8 2 13 -2 10 -4 -2
-26 -1 -49 4 -48 8 -63 2 -32 -14 12 -6 20 -15 18 -21 -7 -17 -72 -12 -114 9
-43 22 -68 29 -60 16 3 -4 -15 -11 -40 -14 -39 -6 -45 -11 -45 -31 0 -13 6
-26 13 -28 6 -3 -3 -6 -20 -6 -39 -1 -42 -13 -10 -34 12 -9 35 -27 51 -41 16
-14 37 -28 47 -31 11 -4 19 -10 19 -15 0 -11 39 -20 45 -10 3 5 19 11 36 15
18 4 29 12 26 19 -3 7 15 2 42 -11 54 -26 101 -30 101 -8 0 8 -4 15 -10 15 -5
0 -10 5 -10 11 0 7 18 10 50 7 28 -3 50 0 50 5 0 5 -7 7 -15 4 -8 -4 -17 -2
-20 2 -7 12 25 19 64 13 23 -3 29 -7 20 -13 -10 -6 -10 -9 -2 -9 7 0 10 -7 7
-15 -4 -8 -1 -15 5 -15 18 0 23 24 12 52 -7 18 -6 29 2 38 9 9 7 11 -8 8 -12
-2 -19 2 -18 9 2 7 -12 17 -30 22 -17 5 -24 10 -14 10 10 1 35 -8 55 -18 20
-11 56 -25 80 -31 23 -6 40 -15 37 -19 -6 -11 53 -18 168 -21 l89 -2 -3 104
c-2 82 -6 104 -18 110 -14 6 -13 7 1 7 16 1 18 13 15 131 -2 122 -10 165 -20
103 -3 -23 -4 -21 -6 10 -1 27 3 37 14 37 8 0 15 7 15 15 0 8 -4 15 -10 15
-15 0 -12 68 3 73 9 3 9 9 0 25 -8 13 -9 23 -3 27 6 3 10 23 10 44 0 38 -1 39
-45 46 -55 8 -105 -2 -105 -20 0 -7 25 -23 55 -35 30 -12 55 -26 55 -31 0 -9
-19 -3 -60 18 -14 7 -33 13 -42 13 -19 0 -21 4 -20 68 0 46 -17 59 -19 15 -4
-71 -13 -98 -30 -88 -5 4 -9 1 -9 -6 0 -7 -3 -10 -6 -6 -3 3 -22 0 -42 -7 -21
-7 -50 -16 -65 -20 -29 -7 -29 -7 -22 33 5 33 4 40 -12 44 -16 4 -16 5 0 6 13
1 17 10 17 41 0 31 -4 40 -17 41 -15 0 -15 2 2 9 13 6 15 9 5 9 -12 1 -12 3
-2 9 9 6 0 14 -29 25 -24 9 -45 15 -47 12 -9 -8 8 -36 18 -30 5 3 10 1 10 -5
0 -6 -6 -10 -12 -9 -33 4 -41 -1 -28 -16 7 -8 18 -15 26 -15 7 0 16 -5 20 -12
5 -8 2 -9 -9 -5 -10 4 -24 10 -32 13 -12 5 -14 -3 -11 -45 2 -29 0 -48 -5 -45
-5 3 -32 6 -59 8 -40 2 -50 -1 -50 -14 0 -9 5 -21 12 -28 9 -9 9 -12 0 -12 -7
0 -12 4 -12 9 0 11 -90 19 -96 9 -3 -5 -14 -8 -25 -8 -10 0 -19 -7 -19 -15 0
-8 6 -15 13 -15 9 0 9 -2 0 -8 -10 -6 -30 -110 -36 -184 -1 -10 -5 -18 -9 -18
-4 0 -5 56 -2 124 6 115 5 125 -12 134 -24 12 -54 7 -65 -9 -11 -19 0 -32 22
-26 10 3 22 1 25 -4 3 -5 -9 -9 -25 -9 -17 0 -31 -4 -31 -10 0 -5 -5 -9 -11
-7 -6 1 -13 -10 -16 -25 -3 -20 1 -28 12 -28 8 0 15 -8 14 -17 0 -11 -3 -13
-6 -5 -7 18 -23 15 -23 -4 0 -9 8 -23 18 -30 14 -12 14 -13 1 -8 -19 6 -34
-32 -15 -40 7 -3 7 -5 -1 -5 -7 -1 -13 -10 -13 -21 0 -14 7 -20 23 -20 13 0
54 -20 91 -45 74 -48 92 -54 99 -30 4 11 4 10 3 -2 -2 -22 -52 -30 -203 -33
-81 -2 -108 1 -128 14 -14 9 -25 20 -25 23 0 4 5 2 12 -5 8 -8 49 -12 128 -11
63 1 103 4 88 6 -16 2 -28 9 -28 14 0 5 -7 9 -15 9 -8 0 -15 7 -15 16 0 13 -3
14 -15 4 -8 -6 -19 -9 -25 -5 -21 13 -9 25 28 26 37 2 37 2 -8 8 -25 4 -51 11
-59 15 -8 5 -40 9 -70 9 l-56 -1 50 7 c47 6 49 7 27 19 -13 7 -42 12 -64 10
-37 -3 -42 0 -47 20 -3 13 -10 23 -16 24 -5 0 -25 6 -43 14 -25 10 -44 11 -75
4 -55 -12 -80 -12 -72 0 4 6 10 8 15 5 18 -11 40 8 39 34 -2 23 -2 24 -6 4 -5
-26 -16 -29 -32 -9 -7 8 -23 17 -36 20 -14 4 -25 11 -25 16 0 6 -18 10 -40 10
-69 0 -44 15 30 18 69 2 70 2 70 -23 0 -29 5 -31 26 -10 14 13 13 15 -3 16
-13 1 -11 3 7 9 14 4 30 8 36 9 14 1 55 -34 48 -42 -8 -8 34 -19 46 -12 7 4 7
13 0 26 -7 13 -7 19 0 19 5 0 10 8 10 18 0 22 -50 50 -51 29 0 -6 -4 -3 -9 8
-8 20 -9 19 -9 -1 -1 -12 6 -27 14 -34 9 -7 13 -15 11 -18 -12 -11 -36 30 -36
61 0 18 -3 36 -6 40 -11 10 -10 117 1 117 6 0 9 -19 6 -46 -2 -30 0 -44 7 -40
6 3 13 -7 17 -23 6 -30 37 -50 123 -78 26 -9 32 -9 32 3 0 7 -6 11 -13 8 -7
-2 -19 7 -27 21 -9 16 -17 22 -24 15 -7 -5 -17 -5 -26 0 -10 7 -11 10 -2 10 6
0 12 5 12 11 0 6 -8 8 -19 4 -31 -9 -51 5 -51 36 0 22 5 29 20 29 16 0 20 7
20 33 0 24 -3 28 -10 17 -7 -11 -9 -1 -6 32 2 25 -1 52 -5 60 -5 7 -9 8 -9 3
0 -14 -38 -36 -71 -42 -15 -2 -44 3 -64 12 -46 19 -55 19 -55 1 0 -8 -6 -16
-14 -19 -17 -7 -72 7 -68 16 1 4 2 14 2 22 0 18 31 20 49 3 12 -11 13 -10 7 6
-5 15 -3 17 16 12 92 -26 141 -14 78 19 -17 9 -30 11 -30 5 0 -5 -12 -10 -27
-10 -63 0 -103 -12 -103 -31 0 -17 -36 -36 -47 -25 -4 3 1 6 10 6 10 0 17 5
17 11 0 12 -139 1 -156 -12 -8 -6 -13 -2 -17 11 -3 11 -9 20 -14 19 -4 -1 -16
1 -25 5 -21 10 -24 46 -4 46 8 0 17 11 20 25 5 20 10 24 22 17 19 -11 226 -3
239 9 5 5 -10 9 -38 9 l-48 0 3 58 c2 39 7 56 16 55 6 -2 12 3 12 10 0 8 12
12 33 11 47 -3 47 -3 41 -19 -4 -9 0 -15 10 -15 9 0 16 3 16 8 0 4 11 20 25
35 19 20 22 27 10 27 -8 0 -15 -5 -15 -10 0 -6 -11 -8 -25 -4 -17 4 -25 2 -25
-7 0 -11 -3 -11 -10 1 -9 13 -10 13 -10 0 0 -12 -2 -13 -9 -1 -5 8 -14 10 -21
6 -8 -5 -11 -3 -8 6 3 8 18 14 35 14 17 0 37 5 44 12 8 6 25 14 38 18 20 6 23
4 18 -9 -4 -9 -3 -16 2 -16 11 0 20 35 12 46 -3 5 -15 9 -26 8 -11 -1 -36 -2
-55 -3 -28 -1 -32 -4 -20 -12 12 -8 10 -10 -9 -5 -14 3 -31 0 -38 -6 -10 -8
-17 -8 -25 0 -6 6 -18 8 -27 5 -9 -4 -13 -2 -8 2 4 5 17 9 29 10 29 2 34 21 8
28 -11 3 -20 1 -20 -3 0 -5 -18 -11 -40 -15 -22 -4 -40 -11 -40 -15 0 -5 12
-6 28 -4 21 4 24 3 15 -7 -7 -7 -29 -14 -50 -16 -44 -5 -44 -5 -46 -31 0 -11
-5 -19 -9 -16 -4 3 -5 11 -1 19 4 13 -9 15 -78 14 -82 -1 -83 -1 -39 -12 44
-10 44 -11 15 -17 -36 -7 -75 -1 -75 11 0 5 -5 9 -11 9 -5 0 -8 -4 -4 -9 3 -6
-11 -11 -32 -13 -35 -3 -61 -28 -28 -28 9 0 13 -4 10 -10 -6 -9 4 -8 42 7 28
10 132 13 108 3 -20 -9 -20 -9 2 -15 12 -4 23 -17 26 -31 5 -29 -9 -32 -18 -3
-4 13 -12 18 -21 15 -9 -3 -12 -1 -9 5 4 6 -2 8 -18 4 -14 -4 -28 -2 -32 5 -4
7 -11 8 -18 1 -21 -17 -192 -18 -182 -1 3 6 3 10 -2 10 -11 -1 -44 -27 -44
-34 3 -20 -1 -24 -16 -21 -10 1 -17 10 -17 19 1 9 -2 16 -7 16 -5 0 -9 -7 -9
-15 0 -18 -38 -29 -85 -23 -19 2 -35 1 -35 -2 0 -3 -19 -4 -42 -2 -32 2 -39 1
-28 -7 8 -6 23 -8 32 -5 13 4 16 1 12 -10 -5 -12 0 -16 21 -16 19 0 29 -6 32
-20 3 -11 23 -31 45 -44 29 -17 35 -25 24 -29 -9 -3 -21 0 -28 7 -27 26 -60
39 -68 26 -4 -7 -12 -10 -18 -6 -6 3 -13 0 -15 -6 -3 -7 -6 3 -6 24 -1 30 -7
39 -36 57 -20 11 -41 25 -48 31 -6 6 -21 17 -32 25 -19 13 -18 14 18 15 32 0
37 3 37 23 0 13 5 28 10 33 7 7 7 11 -2 12 -7 0 -28 4 -46 7 -35 7 -67 -9 -55
-28 3 -6 1 -7 -5 -3 -22 13 -87 13 -101 -1 -17 -17 -21 -13 -26 26 -4 27 -1
31 20 31 14 0 25 5 25 10 0 6 7 10 16 10 8 0 12 5 9 10 -8 12 -185 11 -185 -1
0 -5 14 -9 30 -9 20 0 30 -5 30 -15 0 -8 -9 -15 -20 -15 -11 0 -20 -4 -20 -10
0 -5 -4 -10 -9 -10 -5 0 -8 7 -7 16 0 9 -5 19 -12 21 -9 3 -12 -2 -10 -13 2
-12 -3 -19 -12 -19 -20 0 -28 104 -8 106 7 1 37 3 66 5 44 2 51 0 42 -11 -16
-20 1 -25 59 -18 46 5 98 33 86 45 -3 3 10 5 29 6 18 1 53 6 77 11 58 14 59
14 59 -4 0 -12 -14 -15 -62 -15 -35 0 -70 -5 -78 -10 -13 -8 -12 -10 3 -10 9
0 17 -7 17 -15 0 -10 9 -14 30 -12 16 1 30 5 30 9 0 4 10 4 23 0 24 -9 82 -1
79 11 -7 25 1 28 56 21 32 -4 53 -3 49 2 -5 5 -13 10 -18 10 -5 1 -13 2 -19 3
-5 0 -10 6 -10 11 0 16 38 11 57 -8 15 -14 32 -17 100 -14 63 3 81 7 77 17 -3
7 1 13 8 12 32 -1 49 4 43 12 -3 5 3 12 12 14 10 3 -2 3 -27 0 -25 -4 -46 -10
-48 -15 -2 -4 -23 -8 -47 -8 -38 0 -44 3 -42 20 2 24 6 24 31 5 28 -21 46 -18
46 8 0 17 -2 19 -10 7 -8 -12 -11 -12 -28 3 -22 20 -41 21 -64 3 -23 -17 -23
-33 0 -39 10 -3 6 -5 -10 -6 -16 0 -28 3 -28 9 0 5 -12 7 -27 4 -44 -7 -90
-12 -70 -7 9 2 17 9 17 14 0 6 -6 7 -13 3 -9 -6 -9 -4 1 7 6 7 12 16 12 20 0
9 -43 -1 -50 -11 -7 -10 -120 -19 -114 -9 2 4 -2 10 -8 12 -7 3 5 6 27 7 32 1
36 3 20 10 -36 16 -67 10 -91 -16 -23 -23 -24 -24 -24 -5 0 25 -15 28 -24 6
-3 -9 -16 -15 -28 -14 -13 1 -32 1 -43 0 -17 -1 -18 -3 -5 -11 8 -5 51 -10 94
-10 44 0 77 -3 74 -6 -8 -7 -129 -7 -161 1 -21 6 -27 3 -27 -8 0 -9 8 -17 18
-20 9 -2 -7 -4 -36 -5 -28 0 -56 -3 -61 -7 -5 -3 -12 -1 -15 4 -4 5 2 12 11
15 10 3 -1 4 -25 2 -59 -6 -72 -19 -72 -77 0 -30 -4 -49 -11 -49 -8 0 -7 -5 1
-15 7 -9 9 -19 5 -23 -4 -4 -10 -1 -12 6 -4 10 -9 8 -19 -6 -16 -23 -85 -36
-77 -15 3 7 0 13 -6 13 -6 0 -11 -5 -11 -11 0 -5 -5 -7 -11 -4 -6 4 -8 10 -5
13 3 3 1 11 -5 19 -14 16 -5 17 22 3 13 -7 19 -7 19 0 0 5 -4 10 -10 10 -11 0
-1 32 14 42 7 5 6 11 -3 20 -11 10 -14 10 -18 1 -7 -19 -19 -16 -19 5 -1 9 -5
26 -9 36 -7 15 -5 18 7 13 13 -5 15 1 11 34 -5 32 -3 39 11 39 19 0 22 16 4
23 -11 4 41 0 107 -8 11 -1 29 -3 40 -4 13 -1 16 -4 8 -9 -19 -12 -20 -46 0
-50 13 -3 17 3 17 22 0 22 5 26 28 26 l27 0 -27 18 c-20 13 -25 21 -17 29 15
15 -66 7 -99 -10 -15 -7 -26 -7 -32 -1 -12 12 -70 6 -70 -7 0 -5 -7 -6 -15 -3
-9 4 -15 0 -15 -10 0 -9 -4 -16 -9 -16 -5 0 -16 -3 -25 -6 -11 -4 -19 2 -25
19 -5 13 -18 27 -29 29 -17 5 -20 -1 -26 -46 -3 -28 -6 -70 -6 -93 0 -24 -4
-43 -8 -43 -4 0 -7 25 -5 55 1 31 -3 55 -8 55 -6 0 -7 5 -4 10 4 6 8 24 10 40
3 23 0 30 -13 31 -10 0 -12 3 -4 6 6 2 12 11 12 18 0 7 -6 16 -12 18 -7 3 -2
6 12 6 45 2 1 19 -51 19 -40 1 -48 -3 -54 -21 -4 -12 -7 -25 -6 -29 1 -5 -4
-8 -9 -8 -6 0 -10 38 -10 95 0 88 -1 95 -20 95 -22 0 -27 -15 -7 -23 9 -4 9
-6 -1 -6 -7 -1 -10 -5 -7 -11 3 -5 -1 -10 -9 -10 -9 0 -29 -8 -46 -19 -25 -15
-28 -20 -15 -25 9 -3 29 -6 45 -6 26 0 28 -3 23 -27 -3 -16 -6 -33 -6 -40 0
-6 -7 -9 -16 -5 -12 4 -11 0 4 -17 11 -12 15 -22 10 -21 -21 5 -36 0 -30 -9 3
-5 0 -13 -6 -17 -8 -4 -7 -9 2 -15 9 -6 10 -9 2 -9 -7 0 -10 -10 -7 -24 2 -14
1 -27 -3 -29 -11 -7 -28 14 -28 33 0 8 5 18 10 22 6 5 6 8 -1 8 -14 0 -14 72
0 83 6 5 -1 7 -16 4 -23 -3 -28 0 -31 22 l-4 26 -2 -28 c-1 -24 -4 -27 -26
-21 -24 6 -31 -2 -26 -29 1 -5 -3 -6 -9 -2 -6 3 -8 11 -5 16 4 5 2 9 -4 9 -5
0 -12 -10 -14 -22 -3 -17 -5 -14 -6 10 0 17 -6 32 -12 32 -5 0 -8 -4 -5 -8 2
-4 1 -14 -5 -22 -6 -11 -9 -6 -9 18 0 18 -5 32 -12 32 -9 0 -9 3 0 12 18 18
15 27 -8 21 -14 -4 -20 0 -20 11 0 10 6 14 18 10 11 -4 8 1 -8 15 -14 11 -31
21 -37 21 -7 0 -13 5 -13 11 0 6 -6 9 -14 6 -8 -3 -17 -1 -20 6 -3 7 -4 1 -3
-13 1 -17 -3 -25 -13 -25 -8 0 -14 6 -12 13 1 6 -4 12 -10 12 -9 0 -8 4 2 10
12 8 10 10 -10 11 -19 0 -21 2 -8 7 15 6 13 9 -8 19 -21 10 -26 9 -31 -4 -4
-11 -8 -12 -14 -2 -10 17 -39 -6 -39 -32 0 -12 -7 -19 -18 -19 -15 0 -19 7
-18 32 1 18 -5 33 -13 36 -9 3 -11 0 -6 -8 4 -7 2 -16 -6 -21 -12 -8 -12 -11
1 -19 13 -9 13 -10 0 -10 -12 -1 -11 -3 3 -14 10 -8 28 -12 40 -9 20 4 20 3 4
-7 -9 -6 -26 -8 -36 -5 -14 4 -20 0 -23 -14 -3 -19 -4 -19 -15 4 -6 14 -7 23
-2 19 5 -3 9 0 9 6 0 15 -33 26 -38 12 -4 -13 -23 -17 -21 -4 4 21 -3 32 -20
32 -12 0 -20 7 -20 18 0 64 -4 99 -12 114 -5 10 -5 19 0 22 5 3 11 -1 15 -9 3
-8 16 -14 28 -14 l23 2 -22 4 c-13 2 -23 11 -23 19 0 8 -5 14 -11 14 -5 0 -7
5 -4 10 4 6 -6 10 -22 10 -15 0 -23 -4 -17 -8 12 -8 14 -82 2 -82 -5 0 -8 -24
-8 -54 0 -49 -2 -54 -20 -49 -15 4 -20 14 -21 42 -1 20 -1 40 0 44 2 14 -25
18 -50 8 -21 -9 -21 -10 -4 -11 18 -1 17 -2 -5 -15 -19 -11 -21 -14 -7 -15 34
0 16 -20 -19 -20 -19 0 -33 4 -30 9 3 5 -4 12 -17 15 -21 7 -21 8 -3 15 19 7
19 8 1 15 -10 3 -21 3 -24 -2 -9 -13 -41 -23 -41 -13 0 5 7 12 16 15 31 12 8
16 -25 5 -21 -7 -30 -16 -27 -25 3 -8 1 -14 -4 -14 -9 0 -15 53 -11 88 1 6 -3
12 -9 12 -5 0 -10 -18 -10 -39 0 -22 -4 -43 -10 -46 -5 -3 -10 -2 -10 3 0 6
-9 8 -20 5 -11 -3 -20 0 -20 6 0 6 5 11 10 11 6 0 1 9 -10 20 -11 11 -25 20
-31 20 -5 0 -7 5 -4 10 3 6 0 10 -7 10 -9 0 -9 3 2 10 9 6 10 10 3 10 -6 0
-19 -7 -28 -16 -19 -19 -20 -18 -29 18 -4 18 -1 32 10 42 13 14 14 16 0 16 -8
0 -18 -5 -21 -10 -4 -6 -11 -8 -16 -5 -8 6 -13 -9 -10 -29 1 -5 -4 -13 -11
-17 -7 -5 -13 -16 -13 -25 0 -10 -6 -19 -12 -21 -7 -3 -13 3 -13 12 0 9 -4 14
-9 11 -5 -3 -13 27 -19 66 -9 68 -9 70 -11 24 -2 -81 -41 -162 -41 -87 0 24
-4 29 -20 28 -11 -1 -20 -5 -20 -9 0 -12 -35 -9 -48 4 -9 9 -12 7 -12 -10 0
-28 -7 -28 -36 3 -29 31 -36 32 -28 1 4 -18 1 -25 -18 -30 -30 -8 -38 -8 -37
2 3 20 -2 32 -16 32 -8 0 -15 -7 -15 -15 0 -8 -4 -15 -10 -15 -5 0 -10 4 -10
10 0 5 -7 7 -15 4 -10 -4 -15 0 -15 14 0 15 -5 18 -25 14 -18 -3 -25 0 -25 12
0 10 -8 16 -21 16 -16 0 -20 5 -17 27 4 33 -18 42 -27 11 -10 -29 -26 -40 -41
-27 -15 12 -30 -24 -18 -42 5 -8 1 -10 -14 -7 -12 3 -23 1 -26 -6 -2 -6 -5 -1
-5 12 -1 12 -5 22 -11 22 -5 0 -10 15 -11 33 0 17 -4 41 -9 52 -6 15 -9 8 -9
-27 -1 -47 -13 -63 -25 -32 -8 20 -26 9 -26 -17 0 -11 -7 -19 -16 -19 -10 0
-14 6 -11 14 8 19 -3 28 -18 16 -9 -7 -12 -5 -12 7 0 50 -1 52 -49 50 -42 -1
-48 -4 -62 -34 -12 -25 -18 -30 -29 -22 -7 6 -13 20 -13 30 0 10 -4 21 -10 24
-6 3 -7 -1 -4 -9 3 -9 1 -16 -6 -16 -6 0 -9 -4 -5 -9 16 -27 -58 -14 -77 14
-5 6 -8 4 -9 -5 0 -8 -5 -4 -9 10 -8 24 -8 24 -9 3 -1 -13 -7 -23 -16 -23 -11
0 -15 13 -15 54 l0 53 -41 -4 c-40 -4 -41 -3 -37 21 3 14 1 26 -3 26 -5 0 -9
-4 -9 -9 0 -6 -17 -8 -37 -6 -21 3 -30 2 -20 -1 19 -6 22 -25 6 -41 -5 -5 -12
-25 -14 -43 -3 -18 -7 -35 -10 -38 -4 -5 -9 47 -8 86 1 24 -36 13 -43 -13 -8
-30 -25 -33 -21 -4 2 18 -4 22 -35 25 -34 4 -37 2 -41 -23 -2 -16 -5 -4 -6 25
-1 46 2 54 22 62 20 8 20 9 2 9 -23 1 -49 -14 -51 -29 -1 -5 -2 -13 -3 -17 -2
-17 -49 -11 -54 6 -5 21 -37 24 -37 4 0 -7 7 -16 15 -19 8 -4 15 -10 15 -16 0
-5 -4 -6 -10 -3 -5 3 -10 -1 -10 -9 0 -9 -7 -16 -16 -16 -10 0 -14 5 -10 15 3
9 1 15 -7 14 -6 -1 -21 -1 -32 0 -17 1 -18 3 -5 11 19 12 2 14 -87 10 -45 -1
-63 2 -63 10 0 9 -3 10 -13 1 -11 -8 -20 -6 -37 9 -26 22 -54 27 -47 8 2 -7
10 -12 16 -10 6 1 11 -2 11 -8 0 -17 -29 -11 -47 10 -21 24 -73 27 -73 4 0 -8
4 -12 10 -9 6 3 10 1 10 -5 0 -6 5 -8 10 -5 6 4 10 -8 10 -29 0 -25 -4 -36
-15 -36 -10 0 -15 10 -15 30 0 17 -4 30 -10 30 -5 0 -10 10 -10 23 0 18 -2 19
-10 7 -5 -8 -10 -10 -10 -5 -1 6 -5 0 -10 -13 -8 -20 -13 -21 -31 -12 -12 7
-30 10 -40 7 -12 -3 -19 0 -19 9 0 8 -7 14 -15 14 -8 0 -15 -4 -15 -9 0 -5
-25 -9 -55 -9 -30 1 -55 6 -55 10 0 5 -5 6 -10 3 -6 -3 -22 3 -36 14 -39 31
-54 27 -54 -14 0 -19 -5 -35 -11 -35 -7 0 -10 14 -7 35 3 31 1 35 -18 35 -13
0 -26 -6 -31 -12z m4177 -888 c0 -5 -7 -7 -15 -4 -8 4 -15 1 -15 -5 0 -10 4
-12 25 -11 3 0 19 -7 35 -15 17 -9 30 -11 30 -5 0 5 -4 10 -8 10 -5 0 -9 6 -9
14 0 11 4 12 19 3 10 -7 17 -19 16 -28 -2 -9 11 -28 27 -42 23 -21 26 -26 13
-27 -10 0 -18 7 -18 15 0 8 -8 15 -17 15 -13 0 -8 -9 18 -37 18 -20 29 -33 22
-29 -24 14 -43 -5 -39 -40 4 -39 -11 -44 -37 -14 -19 22 -22 35 -7 25 6 -3 10
-4 10 0 0 3 -15 14 -32 25 -34 20 -22 28 13 10 15 -9 19 -7 19 5 0 9 -4 14 -9
11 -5 -4 -11 -1 -13 4 -2 6 -17 13 -33 16 -48 8 -65 15 -65 25 0 6 7 6 19 -1
30 -15 91 -23 91 -11 0 10 -24 15 -33 9 -2 -2 -10 2 -18 8 -8 6 -26 14 -41 18
-28 6 -29 24 -4 53 13 15 56 17 56 3z m520 -294 c47 -37 57 -37 493 -33 399 4
424 3 394 -12 -21 -11 -35 -13 -39 -6 -5 6 -12 5 -18 -5 -7 -10 -10 -11 -10
-2 0 10 -56 12 -263 12 l-264 -1 5 -24 4 -24 -102 0 c-57 0 -105 -3 -108 -6
-3 -3 34 -5 81 -5 84 0 87 -1 86 -22 -1 -14 -3 -17 -6 -7 -3 12 -20 15 -83 16
-72 0 -80 -2 -80 -18 0 -15 8 -19 38 -21 l37 -1 -38 -4 c-29 -3 -37 -8 -36
-21 5 -34 -13 -298 -22 -334 -5 -21 -15 -38 -21 -38 -8 0 -9 67 -4 240 7 233
6 242 -14 267 -11 14 -20 22 -20 17 0 -5 -5 -1 -11 9 -6 9 -14 15 -20 12 -5
-4 -12 1 -15 9 -3 9 -10 13 -15 10 -5 -3 -12 2 -15 10 -3 9 -10 14 -14 11 -5
-3 -13 3 -19 12 -6 10 -11 14 -11 8 0 -11 -20 16 -20 28 0 7 94 -49 130 -77z
m-1214 -193 c-3 -8 -1 -11 4 -8 6 4 17 -9 25 -27 27 -62 70 -113 94 -112 15 0
20 -4 17 -13 -4 -10 7 -7 34 8 22 12 43 20 46 16 4 -4 -4 -11 -18 -16 -28 -10
-43 -37 -27 -47 9 -5 52 25 70 50 4 5 13 6 20 4 8 -3 19 1 24 9 6 8 22 15 35
15 14 1 28 7 32 13 4 5 8 -3 8 -18 0 -20 -6 -30 -19 -34 -12 -3 -17 -11 -14
-19 3 -8 -1 -14 -10 -14 -21 0 -16 -32 8 -52 18 -15 19 -19 5 -41 -8 -14 -33
-45 -56 -69 -37 -39 -66 -86 -45 -74 4 3 13 -6 19 -19 9 -19 8 -23 -3 -19 -20
8 -29 -33 -11 -52 22 -22 20 -31 -2 -11 -10 10 -24 17 -30 17 -7 0 -12 5 -12
10 0 6 -7 10 -16 10 -12 0 -15 6 -10 25 7 27 3 30 -22 16 -15 -8 -17 0 -16 92
1 69 0 86 -5 53 -3 -27 -12 -51 -18 -54 -7 -2 -13 1 -13 8 0 6 5 8 11 4 6 -3
5 4 -3 17 -8 13 -14 36 -13 51 0 15 -3 24 -7 22 -4 -3 -8 0 -8 6 0 7 -6 10
-13 7 -8 -3 -18 7 -25 23 -10 22 -17 26 -38 22 -27 -5 -22 -18 11 -24 19 -4
18 -5 -5 -17 -17 -10 -25 -11 -28 -2 -2 6 -10 11 -17 11 -19 0 -15 38 5 46 21
10 34 11 40 2 3 -4 11 -3 19 1 11 7 11 13 0 32 -13 22 -18 48 -20 107 -1 12
-5 22 -9 22 -9 0 -20 37 -13 44 10 10 24 -6 19 -21z m2763 -81 c-13 -5 -11
-42 2 -42 5 0 7 5 3 12 -5 7 -3 8 6 3 10 -6 10 -11 -3 -20 -10 -7 -17 -21 -17
-31 0 -16 2 -17 10 -4 8 13 10 13 10 -1 0 -9 -6 -19 -14 -22 -8 -3 -14 -22
-14 -49 -1 -57 -23 -110 -41 -99 -9 6 -10 11 -2 15 19 12 12 36 -10 36 -17 0
-20 -5 -17 -25 6 -28 6 -27 -16 -19 -9 3 -16 15 -16 25 0 10 -6 19 -12 20 -10
0 -10 2 0 6 7 3 12 23 12 48 0 33 -4 45 -17 48 -15 4 -14 5 2 6 30 2 31 41 2
42 -21 2 -21 2 2 6 19 4 22 10 19 34 -4 29 -4 29 44 29 30 0 48 4 48 12 0 6 6
3 14 -8 8 -10 10 -20 5 -22z"/>
<path d="M6530 2281 c0 -6 5 -11 11 -11 17 0 2 -220 -17 -241 -8 -9 -12 -18
-10 -20 3 -3 35 -2 71 1 65 5 66 5 63 -19 -3 -25 -29 -36 -58 -25 -12 5 -11 8
5 14 19 8 19 9 -2 9 -13 1 -23 -2 -23 -6 1 -22 21 -31 78 -36 47 -4 67 -10 77
-24 17 -25 68 -25 73 0 3 13 -3 17 -22 17 -19 0 -26 5 -26 20 0 15 7 20 25 20
24 0 25 2 25 68 l0 69 -39 12 c-26 7 -48 8 -63 2 l-25 -9 1 71 1 72 -30 1
c-28 2 -38 4 -92 20 -14 4 -23 2 -23 -5z"/>
<path d="M5749 2049 c-1 -8 -1 -18 0 -23 1 -5 -4 -13 -11 -18 -9 -6 -10 -10
-2 -15 9 -6 8 -12 -2 -21 -12 -11 -14 -8 -15 15 -1 32 -5 19 -14 -49 l-6 -48
-42 -1 c-33 0 -38 -2 -22 -9 30 -13 129 -12 143 2 9 9 12 8 12 -5 0 -10 7 -17
18 -16 10 0 12 3 5 6 -25 9 -12 23 27 29 23 4 37 11 33 17 -4 6 10 7 41 3 l47
-7 -5 28 c-2 15 -5 31 -5 36 -2 15 -22 6 -53 -23 -33 -32 -68 -40 -68 -15 0 8
-11 17 -25 21 -15 4 -22 11 -18 18 4 6 -1 5 -11 -3 -16 -13 -17 -11 -15 32 2
26 0 50 -4 53 -4 4 -8 1 -8 -7z"/>
<path d="M6215 1940 c18 -8 18 -9 -5 -10 -115 -9 -130 -9 -124 2 5 7 3 8 -6 3
-10 -6 -9 -11 5 -22 11 -7 22 -13 27 -13 4 0 8 -7 8 -15 0 -19 34 -19 50 0 9
11 17 12 31 4 11 -5 24 -7 29 -4 5 3 12 1 15 -5 4 -6 14 -10 23 -9 35 3 52 -1
52 -14 0 -18 40 -19 47 -1 3 8 19 14 42 14 30 1 33 2 18 11 -10 6 -25 8 -33 5
-9 -4 -14 2 -15 17 0 12 -3 17 -5 10 -5 -12 -34 -6 -45 9 -3 5 -25 9 -49 10
-28 0 -38 3 -29 9 9 6 2 9 -21 8 -29 0 -31 -2 -15 -9z"/>
<path d="M5188 1903 c-10 -2 -18 -9 -18 -14 0 -5 -7 -9 -16 -9 -8 0 -12 5 -9
10 8 13 7 13 -62 -5 -32 -9 -74 -15 -93 -14 -19 0 -83 -2 -142 -5 -82 -4 -108
-3 -108 7 0 8 -3 9 -8 1 -4 -6 -42 -10 -94 -10 -64 1 -88 -2 -88 -11 0 -7 7
-13 15 -13 9 0 12 -6 9 -15 -4 -9 0 -15 9 -15 9 0 23 -3 33 -7 10 -3 15 -2 12
3 -4 5 18 9 48 9 30 0 54 -3 54 -7 0 -5 -18 -8 -39 -8 -22 0 -41 -5 -43 -12
-4 -10 -10 -10 -33 0 -15 7 -30 10 -33 7 -15 -14 19 -20 116 -18 59 1 101 0
94 -3 -22 -10 -4 -21 28 -16 17 2 30 10 30 18 0 8 7 14 16 14 8 0 12 -4 9 -10
-3 -5 -2 -10 3 -10 6 0 9 -8 7 -17 -1 -10 0 -12 2 -5 3 8 11 11 19 8 8 -3 14
1 14 10 0 8 -4 13 -9 9 -5 -3 -13 0 -17 6 -3 6 0 15 7 20 9 5 -11 7 -49 5 -34
-2 -65 1 -68 5 -3 5 2 9 10 9 8 0 18 5 22 11 4 8 -13 9 -60 4 -39 -4 -66 -4
-66 2 0 5 72 10 168 12 195 2 321 9 335 18 6 3 7 1 3 -5 -10 -17 -2 -15 20 6
37 34 25 49 -28 35z"/>
<path d="M30 1830 c15 -12 34 -18 48 -15 12 3 22 1 22 -4 0 -5 17 -12 38 -17
l37 -7 -30 -6 c-16 -4 -30 -11 -30 -18 0 -19 -12 -25 -35 -18 -24 8 -21 31 4
27 9 -2 16 1 16 6 0 14 -28 23 -35 12 -4 -6 -13 -10 -21 -10 -8 0 -12 5 -9 10
3 6 -3 10 -14 10 -14 0 -19 -6 -18 -21 1 -16 6 -19 24 -14 13 3 23 1 23 -5 0
-5 -12 -10 -27 -10 -22 0 -25 -2 -13 -10 10 -6 11 -10 3 -10 -20 0 -15 -28 5
-33 14 -4 14 -5 -3 -6 -16 -2 -15 -5 10 -17 l30 -14 -28 5 c-40 8 -36 -22 6
-34 l32 -9 -32 -1 c-26 -1 -33 -5 -33 -20 0 -17 14 -23 80 -38 56 -12 74 -20
60 -25 -10 -4 -34 -3 -52 3 -18 5 -45 9 -60 9 -26 0 -28 -3 -28 -44 0 -26 5
-46 13 -49 9 -4 9 -6 0 -6 -17 -1 -17 -48 0 -54 9 -4 9 -6 -1 -6 -10 -1 -13
-35 -11 -150 1 -130 3 -150 17 -154 15 -4 15 -5 0 -6 -16 -1 -17 -38 -18 -541
l0 -540 405 0 405 0 0 22 c0 12 -7 30 -17 40 -22 25 -15 28 42 19 28 -5 40 -9
28 -10 -13 0 -23 -5 -23 -11 0 -16 25 -11 50 10 13 11 33 20 46 20 13 0 26 4
29 10 3 5 16 10 28 11 12 0 0 6 -28 13 -33 7 -46 14 -37 20 7 4 15 6 18 3 3
-2 32 1 66 8 34 7 67 11 75 8 7 -3 13 0 13 6 0 6 -11 11 -24 11 -31 0 -56 10
-56 21 0 5 11 9 24 9 28 0 86 21 71 25 -5 2 -21 6 -35 9 -14 3 -31 14 -38 26
-11 18 -10 20 9 20 11 0 17 -4 14 -10 -9 -15 4 -12 21 5 11 11 20 12 34 5 10
-6 27 -10 37 -9 14 0 15 2 3 6 -8 4 -21 15 -28 25 -7 10 -17 16 -22 13 -5 -3
-14 3 -20 14 -6 12 -16 18 -25 15 -8 -4 -15 -1 -15 5 0 6 -7 11 -16 11 -8 0
-12 5 -9 10 3 6 1 10 -6 10 -7 0 -9 3 -6 6 4 4 13 2 21 -5 10 -9 25 -9 60 1
53 14 57 22 19 36 -26 10 -26 10 -5 11 13 1 20 5 17 11 -4 6 14 10 46 10 71 0
53 15 -41 33 -57 11 -70 17 -52 22 12 4 22 14 22 21 0 12 -3 12 -23 0 -20 -13
-24 -12 -45 9 -22 20 -22 23 -7 39 9 9 22 16 29 16 6 0 12 10 11 23 0 12 5 23
10 24 6 1 10 -11 10 -27 0 -17 4 -30 10 -30 27 1 55 14 55 26 0 8 8 14 18 15
14 0 14 2 -3 9 -18 8 -17 9 8 9 19 1 26 5 21 13 -5 7 -3 8 5 4 14 -9 71 12 71
26 0 5 6 6 13 2 6 -4 9 -4 5 1 -4 4 -3 14 3 22 9 10 1 13 -42 15 l-54 1 50 7
c41 6 46 8 28 15 -13 4 -23 9 -23 12 0 8 25 29 40 36 12 4 11 6 -3 6 -10 1
-28 -4 -39 -10 -15 -8 -19 -8 -14 0 10 15 -15 14 -55 -3 -32 -14 -33 -14 -9
-19 23 -4 24 -4 3 -6 -25 -1 -32 -21 -8 -21 9 0 18 -7 21 -15 4 -10 21 -16 48
-17 l41 -1 -38 -4 c-24 -3 -35 -8 -31 -15 5 -8 1 -9 -12 -3 -10 5 -34 9 -51 9
-25 1 -33 5 -33 19 0 10 5 15 10 12 6 -3 10 3 10 13 0 11 -7 23 -16 26 -23 9
-11 18 33 26 38 8 38 8 6 9 -21 1 -36 8 -43 21 -8 15 -8 20 2 20 10 0 10 2 -1
9 -7 5 -10 14 -7 20 4 6 0 14 -9 17 -13 6 -14 8 -3 15 7 5 18 9 23 9 6 0 3 -5
-5 -10 -10 -7 10 -9 65 -9 49 1 81 -3 83 -10 5 -14 52 -14 72 -1 11 8 9 9 -11
5 -19 -5 -37 1 -64 19 -21 14 -47 26 -58 26 -11 0 -17 3 -14 7 7 6 78 -12 109
-28 27 -14 48 -11 42 5 -3 9 -12 12 -22 9 -11 -5 -14 -2 -9 11 4 10 2 16 -6
15 -36 -4 -149 2 -143 8 4 5 33 6 65 5 43 -3 60 0 70 12 8 9 9 16 4 16 -5 0
-18 6 -28 14 -18 13 -18 14 10 10 17 -2 23 -1 15 2 -18 8 -50 40 -50 50 0 4
-8 13 -17 20 -11 8 -13 13 -5 14 6 0 12 7 12 15 0 9 8 19 17 22 15 6 14 7 -3
13 -23 9 -46 2 -38 -11 8 -14 -9 -10 -30 6 -10 8 -23 12 -29 8 -6 -3 -7 -1 -4
5 4 5 17 8 30 6 15 -4 11 1 -13 15 -19 11 -46 20 -60 21 -18 0 -21 3 -13 11
12 12 15 11 119 -30 l51 -20 -5 25 c-5 26 -12 30 -28 14 -7 -7 -20 -6 -40 5
-16 8 -37 15 -46 15 -10 0 -18 5 -18 11 0 6 -8 8 -19 4 -11 -3 -38 5 -66 20
-26 15 -50 24 -53 20 -7 -6 2 -13 62 -47 20 -12 25 -18 13 -18 -9 0 -16 -5
-14 -11 4 -21 -22 -20 -33 0 -6 12 -18 21 -28 22 -14 0 -14 2 2 8 12 5 16 10
9 14 -19 12 -42 -3 -38 -24 4 -21 -11 -25 -35 -9 -13 8 -12 10 3 10 9 0 17 7
17 15 0 8 7 15 16 15 26 0 13 45 -14 46 -18 1 -19 1 -2 -3 21 -5 29 -35 8 -32
-25 3 -38 -1 -38 -12 0 -5 6 -7 13 -3 8 5 9 4 2 -4 -5 -6 -23 -14 -40 -17 -21
-5 -26 -4 -16 3 11 8 9 11 -10 14 -13 2 -23 9 -22 16 2 6 -4 12 -13 12 -8 0
-13 -4 -9 -9 8 -15 -29 -23 -56 -12 l-24 10 23 7 c18 5 21 9 10 16 -9 7 -1 8
22 4 21 -4 30 -3 22 3 -8 4 -13 12 -12 17 0 5 -7 10 -17 11 -15 2 -15 1 2 -6
15 -7 8 -10 -32 -10 -28 -1 -55 4 -58 9 -4 7 -13 6 -27 -1 -23 -12 -72 -3 -63
11 3 6 -1 10 -9 10 -9 0 -16 5 -16 10 0 6 -6 10 -12 10 -7 0 -26 7 -42 15 -15
8 -32 12 -37 9 -5 -3 -9 0 -9 5 0 6 -11 11 -25 11 -14 0 -25 4 -25 8 0 18 138
-17 170 -43 8 -7 24 -15 35 -19 16 -6 17 -9 5 -17 -11 -8 -8 -8 10 -3 14 4 34
7 45 6 10 -1 25 4 32 9 13 11 113 -8 113 -21 0 -10 59 -10 65 -1 6 11 107 -5
114 -18 4 -5 19 -14 33 -20 34 -13 92 4 84 25 -3 8 1 14 10 14 8 0 12 -4 9
-10 -3 -5 4 -10 16 -10 18 0 20 2 8 16 -8 10 -23 14 -42 11 -18 -2 -31 1 -34
10 -3 7 -9 10 -14 7 -5 -3 -9 -1 -9 5 0 6 -13 17 -30 26 -34 18 -40 18 -40 5
0 -5 9 -10 19 -10 28 0 35 -28 8 -32 -15 -3 -5 -8 31 -18 28 -7 52 -17 52 -22
0 -13 -51 -9 -65 6 -8 8 -38 17 -67 21 -29 4 -68 15 -86 26 -25 14 -38 16 -52
9 -22 -12 -57 -14 -46 -3 4 4 15 8 24 8 9 0 17 7 17 15 0 11 9 14 29 12 22 -2
27 0 23 12 -4 9 1 17 11 19 12 3 11 5 -5 6 -13 0 -23 6 -23 11 0 6 -8 10 -17
10 -14 0 -15 -2 -5 -9 20 -12 -31 -20 -55 -9 -10 5 -5 -2 10 -15 20 -17 25
-26 15 -29 -18 -7 -62 -3 -77 6 -15 10 -25 1 -16 -13 3 -6 17 -11 31 -11 13 0
24 -4 24 -9 0 -4 -18 -5 -40 -1 -26 5 -37 4 -33 -3 4 -6 -2 -8 -15 -5 -12 4
-22 2 -22 -3 0 -14 -28 -11 -37 4 -7 12 -30 26 -123 72 -22 11 -107 31 -120
28 -3 -1 -6 6 -7 15 -1 14 6 17 40 13 l42 -3 -25 20 c-14 11 -29 18 -34 14 -5
-3 -1 -9 10 -13 16 -6 16 -8 2 -8 -9 -1 -20 4 -23 9 -3 6 -15 10 -27 10 -17 0
-18 -2 -8 -15 10 -13 9 -15 -9 -15 -12 0 -19 5 -16 10 3 6 -5 10 -19 10 -18 0
-24 -4 -20 -15 4 -10 0 -15 -12 -14 -11 0 -14 3 -6 6 6 2 10 8 7 13 -12 19 26
39 68 36 23 -2 33 -1 22 1 -11 3 -25 9 -32 15 -7 6 -24 6 -47 0 -28 -8 -34 -7
-29 4 4 12 0 12 -21 4 -24 -9 -30 -6 -27 13 0 4 -5 7 -12 7 -6 0 -27 14 -46
30 -31 28 -32 35 -6 31 6 -1 1 6 -10 15 -18 15 -18 16 -2 10 10 -3 25 -6 32
-6 8 0 11 -7 8 -18 -5 -21 20 -46 39 -39 8 4 5 8 -8 12 -15 5 -20 12 -17 26 5
18 7 19 29 4 13 -8 29 -15 36 -15 9 0 9 3 -2 10 -25 16 10 12 43 -5 16 -8 67
-20 115 -27 47 -6 81 -13 74 -16 -7 -2 -10 -8 -6 -13 7 -12 2 -11 -37 5 -19 7
-60 17 -92 21 -31 3 -55 11 -52 16 4 5 -1 9 -11 9 -28 0 2 -27 38 -34 17 -3
39 -12 47 -20 9 -7 33 -19 54 -26 21 -6 41 -18 44 -26 3 -9 17 -12 44 -9 22 2
37 0 34 -5 -11 -18 72 -28 140 -17 6 1 9 -4 7 -11 -2 -10 2 -10 16 -3 13 7 22
7 30 -1 9 -9 12 -9 12 0 0 6 -19 17 -42 23 -24 7 -47 17 -53 24 -15 17 -44 25
-50 15 -4 -6 0 -10 7 -10 8 -1 6 -6 -6 -15 -11 -8 -25 -15 -30 -15 -6 0 -4 5
4 10 12 8 13 13 2 30 -10 17 -10 20 2 20 8 0 18 5 22 11 5 9 -1 10 -22 4 -37
-10 -64 -9 -77 4 -7 7 -2 8 14 4 21 -6 23 -5 10 10 -7 9 -26 17 -42 17 -16 0
-28 3 -28 8 4 23 -4 32 -29 32 -15 0 -32 4 -37 9 -6 5 -29 11 -51 15 -32 4
-43 2 -48 -9 -4 -10 -13 -14 -28 -10 -29 6 -69 13 -85 14 -28 2 -11 21 18 21
41 0 28 17 -20 25 -26 4 -45 15 -55 30 -22 33 -20 38 9 32 17 -3 29 1 35 12
11 22 -33 47 -109 61 -74 14 -80 13 -51 -10z"/>
<path d="M6785 1801 c-3 -10 -3 -25 0 -33 5 -12 -2 -15 -34 -15 -22 0 -38 3
-36 7 3 4 -2 11 -11 14 -11 4 -15 2 -11 -6 3 -9 -6 -13 -26 -13 -16 0 -32 -6
-35 -14 -3 -9 1 -11 16 -7 11 4 23 2 27 -4 5 -8 -4 -10 -26 -8 -26 2 -34 8
-34 23 0 16 -6 19 -27 17 -16 -2 -28 1 -28 7 0 6 -5 11 -11 11 -5 0 -7 -4 -4
-10 3 -5 0 -10 -9 -10 -8 0 -22 -3 -32 -7 -12 -4 -15 -3 -10 5 5 8 0 12 -13
12 -12 0 -21 5 -21 10 0 6 -5 10 -11 10 -5 0 -8 -4 -5 -9 3 -5 -16 -12 -44
-16 -27 -4 -50 -10 -50 -15 0 -7 147 -32 272 -46 54 -6 58 -8 54 -30 -3 -13 0
-24 5 -24 5 0 9 -13 9 -30 0 -23 -4 -28 -16 -23 -8 3 -25 1 -37 -4 -53 -25
-78 -33 -72 -23 3 5 2 10 -4 10 -5 0 -7 14 -5 30 3 17 1 30 -5 30 -6 0 -11 -8
-11 -17 0 -15 -2 -15 -9 -4 -5 8 -7 21 -3 29 3 9 1 13 -5 9 -6 -4 -14 0 -17 9
-9 22 -7 31 3 16 6 -10 10 -10 21 3 10 12 10 15 -3 15 -8 0 -22 3 -31 6 -12 5
-16 0 -16 -19 0 -24 -2 -25 -32 -15 -41 13 -86 12 -104 -3 -11 -9 -14 -8 -14
3 0 9 -13 15 -40 16 -48 3 -51 -3 -7 -22 l32 -15 -32 6 c-33 5 -38 0 -34 -34
1 -6 -3 -14 -9 -18 -15 -9 -12 -45 3 -45 7 0 19 6 27 13 12 10 12 9 2 -4 -6
-9 -9 -19 -5 -22 11 -12 23 -8 23 8 0 9 9 15 23 14 16 -1 18 -2 5 -6 -28 -7
-22 -33 7 -33 18 0 25 -5 25 -19 0 -17 27 -37 37 -28 8 9 -10 36 -21 30 -7 -4
-7 -2 1 7 10 11 21 9 60 -8 26 -11 50 -17 51 -11 2 5 19 9 38 9 36 0 44 15 19
34 -12 8 -2 11 42 9 79 -2 76 -1 70 -17 -3 -8 1 -17 9 -20 27 -10 52 -6 58 9
3 8 16 15 28 15 23 -1 23 -1 -2 -14 l-25 -14 40 -8 c36 -7 37 -8 15 -14 -22
-5 -25 -12 -27 -55 -1 -28 -4 -58 -7 -67 -5 -20 -2 -23 37 -32 l27 -6 -1 97
c-1 88 -3 100 -24 121 -14 14 -21 30 -18 42 4 15 0 20 -13 21 -12 0 -14 3 -6
6 10 4 10 8 1 19 -17 21 -7 26 24 11 19 -9 27 -21 30 -47 2 -19 4 22 4 93 0
70 -1 127 -3 127 -1 0 -5 -8 -9 -19z"/>
<path d="M5893 1735 c0 -14 -3 -28 -6 -31 -3 -3 -31 0 -62 6 -31 6 -59 9 -62
6 -4 -3 2 -6 13 -6 10 0 28 -7 38 -15 23 -17 9 -19 -28 -5 -17 6 -26 6 -26 0
0 -6 6 -10 13 -10 6 0 21 -8 32 -16 19 -15 19 -15 -10 -9 -23 5 -26 4 -15 -4
13 -10 13 -12 0 -20 -19 -13 -25 -5 -29 42 -2 17 -21 5 -21 -13 0 -11 -4 -20
-9 -20 -5 0 -7 9 -4 20 3 11 0 20 -6 20 -17 0 -13 -47 4 -54 9 -3 15 -18 15
-36 0 -24 4 -30 21 -30 11 0 17 5 14 10 -10 16 12 12 55 -10 24 -12 40 -28 42
-42 2 -14 9 -22 18 -19 8 2 33 3 55 3 37 -1 39 0 21 13 -11 8 -15 15 -9 15 6
0 16 -6 22 -14 10 -12 19 -13 51 -6 3 0 -3 5 -13 11 -12 7 -16 17 -12 30 4 11
2 19 -5 19 -6 0 -8 -4 -5 -10 10 -17 -18 -11 -52 10 -18 11 -33 25 -33 31 0 8
6 7 18 -3 9 -8 26 -18 37 -22 11 -4 3 8 -20 28 -22 19 -37 37 -34 40 9 10 61
-13 55 -23 -6 -9 54 -35 62 -27 9 9 -9 25 -23 20 -10 -4 -13 0 -10 16 2 13 2
20 -1 17 -3 -3 -19 -1 -36 5 -34 12 -49 43 -37 74 7 21 3 34 -11 34 -4 0 -7
-11 -7 -25z"/>
<path d="M6127 1474 c2 -6 -3 -14 -12 -18 -10 -4 -14 -2 -9 5 4 7 3 10 -2 7
-5 -2 -24 -11 -42 -18 -40 -18 -37 -30 14 -46 21 -6 30 -12 20 -13 -16 -1 -17
-4 -8 -13 9 -9 17 -10 30 -2 13 8 20 8 29 -1 7 -7 10 -15 7 -18 -3 -3 -1 -8 4
-11 6 -3 9 9 7 28 -1 23 2 33 10 30 7 -3 10 -17 8 -32 -3 -26 -3 -26 6 -4 6
12 16 22 23 22 9 0 9 -3 0 -12 -14 -14 -17 -52 -3 -44 14 9 22 69 10 77 -8 4
-4 9 10 14 32 10 25 30 -16 49 -42 18 -93 19 -86 0z"/>
<path d="M1594 535 c-15 -20 -22 -39 -18 -49 4 -11 -1 -22 -15 -32 -12 -9 -19
-19 -16 -24 3 -4 -4 -6 -15 -3 -10 3 -18 10 -17 15 1 6 -4 13 -12 16 -10 3
-12 0 -8 -11 7 -18 -28 -48 -47 -41 -7 3 -21 -5 -31 -16 -18 -20 -18 -21 0
-14 15 6 17 4 12 -10 -4 -10 -7 -20 -7 -22 0 -2 -8 -4 -17 -5 -16 0 -16 -1 1
-8 19 -7 19 -8 -3 -30 -19 -19 -21 -25 -10 -32 10 -6 15 -3 17 11 2 11 7 20
11 20 4 0 26 17 49 37 41 36 57 68 27 57 -8 -4 -15 -12 -15 -19 0 -7 -11 -20
-25 -29 -14 -9 -25 -12 -25 -7 0 6 6 14 14 18 7 4 18 18 25 30 17 34 77 18 66
-18 -5 -14 -2 -19 13 -19 11 0 23 6 25 13 4 9 6 9 6 -1 1 -13 -46 -62 -58 -60
-18 2 -31 -3 -31 -13 0 -5 4 -7 10 -4 6 3 7 -1 4 -9 -3 -9 -9 -14 -14 -11 -4
2 -13 -7 -20 -20 -7 -13 -19 -26 -26 -29 -11 -4 -11 -2 -1 14 6 11 15 20 19
20 5 0 8 8 7 18 0 10 -3 12 -6 5 -2 -7 -10 -13 -17 -13 -7 0 -23 -12 -35 -26
-19 -22 -21 -30 -12 -51 17 -36 13 -60 -11 -83 -16 -15 -24 -17 -30 -8 -6 10
-8 9 -8 -3 0 -9 -9 -24 -20 -34 -18 -16 -25 -14 -21 8 1 4 -9 3 -21 -4 -33
-17 -37 -23 -10 -15 22 7 31 -7 12 -19 -28 -17 -4 -26 64 -24 41 2 73 6 70 10
-2 4 6 9 19 13 35 9 40 7 27 -9 -26 -32 21 -15 57 20 20 19 39 35 43 35 4 0
10 8 13 19 2 10 18 23 35 29 26 9 30 8 25 -5 -5 -13 -3 -13 15 -4 13 7 21 21
21 34 -1 12 2 32 4 44 4 16 1 23 -9 23 -8 0 -14 6 -14 13 0 9 13 13 40 13 44
-1 54 13 21 30 -12 6 -22 15 -21 20 1 5 -3 10 -9 12 -6 2 -11 -4 -11 -13 0
-10 -10 -26 -22 -36 -25 -23 -32 -24 -25 -5 3 8 -1 20 -9 26 -11 10 -14 9 -14
-9 0 -11 -4 -21 -10 -21 -5 0 -7 7 -3 16 4 10 -1 17 -15 21 -13 3 -19 10 -15
19 3 8 8 13 11 10 2 -3 13 5 23 18 13 17 17 33 13 54 -4 17 -1 32 5 36 20 12
1 26 -26 20 -24 -6 -24 -5 10 30 33 34 56 48 42 26 -10 -16 25 -25 46 -12 29
19 34 14 8 -7 -13 -11 -21 -23 -16 -27 11 -11 37 18 42 49 7 34 -10 43 -28 16
-16 -22 -35 -9 -21 13 18 29 10 43 -23 44 -27 1 -39 -5 -59 -31z"/>
<path d="M6670 545 c0 -18 -46 -21 -53 -2 -3 7 -6 5 -6 -5 -1 -10 4 -18 9 -18
6 0 10 -7 10 -16 0 -12 7 -15 27 -11 17 3 33 -2 47 -14 11 -11 31 -22 43 -25
44 -11 22 -19 -49 -17 l-73 1 65 -8 c36 -5 75 -11 86 -15 21 -6 22 -3 23 69
l1 76 -65 0 c-51 0 -65 -3 -65 -15z"/>
<path d="M6304 502 c-5 -15 -12 -18 -41 -15 -20 2 -45 9 -56 14 -12 7 -41 8
-76 4 l-56 -7 30 -26 c17 -14 30 -29 30 -34 0 -5 18 -23 39 -39 39 -28 86 -39
86 -19 0 6 30 10 69 10 l69 0 -1 37 c-2 41 -23 57 -29 21 l-5 -23 -11 25 c-6
14 -11 19 -11 12 -1 -7 -5 -11 -10 -8 -4 3 -6 16 -4 30 6 29 -16 47 -23 18z"/>
<path d="M2507 219 c4 -13 -3 -22 -21 -30 -14 -7 -23 -16 -20 -20 8 -13 58
-11 72 3 20 20 13 32 -8 13 -27 -24 -34 -15 -15 21 8 16 15 24 15 17 0 -6 9
-9 21 -6 18 5 20 3 14 -17 -9 -28 -46 -71 -56 -64 -4 2 -11 -1 -15 -7 -4 -8
-3 -9 4 -5 7 4 12 3 12 -3 0 -5 5 -22 10 -36 9 -24 11 -25 26 -11 18 19 34 21
34 5 0 -8 5 -8 15 1 12 10 15 10 15 -3 0 -9 -4 -19 -10 -22 -15 -9 -12 -32 4
-38 14 -5 34 10 68 52 10 11 28 21 40 20 13 0 17 -3 11 -6 -7 -2 -13 -11 -13
-19 0 -8 -5 -14 -11 -14 -5 0 -7 -5 -4 -11 5 -6 12 -4 21 8 14 16 14 15 9 -13
-6 -34 -3 -35 64 -20 25 6 30 11 20 17 -12 8 -12 10 0 18 8 5 20 7 27 4 6 -2
15 0 19 6 3 6 11 11 17 11 7 0 6 -6 -2 -15 -17 -21 4 -19 25 1 13 13 14 19 4
25 -7 4 -17 5 -21 3 -4 -3 -8 2 -8 12 0 13 -3 14 -15 4 -8 -7 -15 -9 -15 -5 0
9 31 34 43 35 5 0 5 -5 1 -12 -5 -8 -2 -9 10 -5 10 4 20 7 22 7 2 0 4 5 4 11
0 5 -4 8 -9 5 -13 -8 -61 33 -62 52 0 12 -3 11 -9 -5 -6 -15 -21 -24 -47 -28
-21 -3 -48 -10 -60 -15 -16 -7 -23 -6 -23 2 0 13 -14 2 -16 -13 -1 -5 -2 -13
-3 -19 0 -5 -5 -10 -10 -10 -4 0 -6 11 -3 25 3 16 0 25 -8 25 -7 0 -10 -6 -7
-13 3 -8 -3 -13 -14 -13 -19 0 -26 11 -11 18 4 2 4 21 0 43 -8 37 -11 40 -41
41 -17 1 -46 4 -63 7 -27 4 -31 2 -27 -14z"/>
</g>
</svg>
